<svg width="30" height="22" viewBox="0 0 30 22" fill="none" xmlns="http://www.w3.org/2000/svg">
<path d="M24.3334 13.6666V2.99992C24.3334 1.53325 23.1334 0.333252 21.6667 0.333252H3.00004C1.53337 0.333252 0.333374 1.53325 0.333374 2.99992V13.6666C0.333374 15.1333 1.53337 16.3333 3.00004 16.3333H21.6667C23.1334 16.3333 24.3334 15.1333 24.3334 13.6666ZM21.6667 13.6666H3.00004V2.99992H21.6667V13.6666ZM12.3334 4.33325C10.12 4.33325 8.33337 6.11992 8.33337 8.33325C8.33337 10.5466 10.12 12.3333 12.3334 12.3333C14.5467 12.3333 16.3334 10.5466 16.3334 8.33325C16.3334 6.11992 14.5467 4.33325 12.3334 4.33325ZM29.6667 4.33325V18.9999C29.6667 20.4666 28.4667 21.6666 27 21.6666H4.33337V18.9999H27V4.33325H29.6667Z" fill="white"/>
</svg>
