<svg width="27" height="27" viewBox="0 0 27 27" fill="none" xmlns="http://www.w3.org/2000/svg">
<path d="M18.5 0.5V1.906C17.6801 2.04679 16.9016 2.3671 16.22 2.844L15.188 1.874L13.813 3.344L14.813 4.281C14.3555 4.94769 14.0462 5.70469 13.906 6.501H12.5V8.501H13.906C14.052 9.331 14.38 10.087 14.844 10.751L13.781 11.781L15.221 13.221L16.251 12.157C16.915 12.621 17.671 12.949 18.501 13.095V14.5H20.501V13.094C21.2972 12.9541 22.0542 12.6452 22.721 12.188L23.657 13.188L25.127 11.812L24.157 10.782C24.627 10.112 24.947 9.337 25.095 8.5H26.5V6.5H25.094C24.95 5.6903 24.6298 4.92217 24.156 4.25L25.094 3.312L23.687 1.906L22.75 2.844C22.0778 2.37017 21.3097 2.04994 20.5 1.906V0.5H18.5ZM19.5 3.813C19.9851 3.80981 20.466 3.903 20.9148 4.08714C21.3637 4.27129 21.7715 4.54274 22.1145 4.88573C22.4576 5.22872 22.7292 5.63643 22.9135 6.08521C23.0977 6.53398 23.191 7.01488 23.188 7.5C23.188 9.555 21.555 11.188 19.5 11.188C17.445 11.188 15.812 9.555 15.812 7.5C15.812 5.445 17.445 3.812 19.5 3.812V3.813ZM6.52998 9.718L4.68798 10.468L5.40598 12.278C4.45021 12.85 3.64621 13.6437 3.06198 14.592L1.28198 13.872L0.531982 15.717L2.31198 16.435C2.1715 16.9759 2.09828 17.5321 2.09398 18.091C2.09398 18.661 2.17898 19.217 2.31198 19.747L0.531982 20.467L1.28198 22.31L3.06198 21.59C3.64088 22.5507 4.44549 23.3557 5.40598 23.935L4.68598 25.715L6.53098 26.465L7.25098 24.685C7.79185 24.8258 8.34809 24.8991 8.90698 24.903C9.47698 24.903 10.035 24.818 10.563 24.685L11.283 26.465L13.126 25.715L12.406 23.935C13.355 23.3516 14.1489 22.5474 14.72 21.591L16.53 22.309L17.28 20.466L15.47 19.746C15.6 19.216 15.688 18.659 15.688 18.09C15.688 17.52 15.601 16.962 15.468 16.433L17.281 15.715L16.531 13.87L14.721 14.59C14.1466 13.6441 13.3529 12.8504 12.407 12.276L13.127 10.466L11.282 9.716L10.565 11.526C10.0236 11.3864 9.46709 11.3135 8.90798 11.309C8.33798 11.309 7.78198 11.395 7.25198 11.527L6.53198 9.717L6.52998 9.718ZM8.90598 13.31C11.569 13.31 13.686 15.43 13.686 18.092C13.688 20.755 11.569 22.904 8.90598 22.904C8.27384 22.9048 7.64775 22.7809 7.06358 22.5393C6.4794 22.2978 5.94862 21.9434 5.50162 21.4964C5.05463 21.0494 4.70021 20.5186 4.45867 19.9344C4.21712 19.3502 4.09319 18.7241 4.09398 18.092C4.09398 15.429 6.24398 13.31 8.90598 13.31Z" fill="white"/>
</svg>
